<svg width="150" height="150" viewBox="0 0 150 150" fill="none" xmlns="http://www.w3.org/2000/svg">
<path fill-rule="evenodd" clip-rule="evenodd" d="M75 148C115.317 148 148 115.317 148 75C148 34.6832 115.317 2 75 2C34.6832 2 2 34.6832 2 75C2 115.317 34.6832 148 75 148ZM75 150C116.421 150 150 116.421 150 75C150 33.5786 116.421 0 75 0C33.5786 0 0 33.5786 0 75C0 116.421 33.5786 150 75 150Z" fill="#FFC41E"/>
<path fill-rule="evenodd" clip-rule="evenodd" d="M53.438 53.5056C52.5352 53.5056 51.6637 53.869 51.0167 54.525C50.3689 55.1819 50 56.0787 50 57.0196V87.3465C50 88.4511 49.1046 89.3465 48 89.3465C46.8954 89.3465 46 88.4511 46 87.3465V57.0196C46 55.0357 46.777 53.1275 48.1688 51.7163C49.5614 50.3041 51.4563 49.5056 53.438 49.5056C55.4197 49.5056 57.3145 50.3041 58.7072 51.7163C60.099 53.1275 60.876 55.0357 60.876 57.0196V76.3186C60.876 77.4231 59.9805 78.3186 58.876 78.3186C57.7714 78.3186 56.876 77.4231 56.876 76.3186V57.0196C56.876 56.0787 56.5071 55.1819 55.8592 54.525C55.2123 53.869 54.3408 53.5056 53.438 53.5056Z" fill="black"/>
<path fill-rule="evenodd" clip-rule="evenodd" d="M64.5504 42.6592C63.5577 42.6592 62.6167 43.0429 61.9318 43.7085C61.2487 44.3722 60.876 45.26 60.876 46.1732V76.5001C60.876 77.6047 59.9805 78.5001 58.876 78.5001C57.7714 78.5001 56.876 77.6047 56.876 76.5001V46.1732C56.876 44.1615 57.6989 42.2443 59.1442 40.8398C60.5875 39.4373 62.5332 38.6592 64.5504 38.6592C66.5676 38.6592 68.5133 39.4373 69.9566 40.8398C71.4019 42.2443 72.2248 44.1615 72.2248 46.1732V73.7431C72.2248 74.8477 71.3294 75.7431 70.2248 75.7431C69.1202 75.7431 68.2248 74.8477 68.2248 73.7431V46.1732C68.2248 45.26 67.852 44.3722 67.169 43.7085C66.4841 43.0429 65.5431 42.6592 64.5504 42.6592Z" fill="black"/>
<path fill-rule="evenodd" clip-rule="evenodd" d="M86.7752 45.4885C85.7789 45.4885 84.8367 45.8716 84.1525 46.5326C83.4706 47.1914 83.1008 48.0699 83.1008 48.9708V73.8122C83.1008 74.9168 82.2054 75.8122 81.1008 75.8122C79.9963 75.8122 79.1008 74.9168 79.1008 73.8122V48.9708C79.1008 46.9637 79.9267 45.0533 81.3732 43.6559C82.8173 42.2607 84.7617 41.4885 86.7752 41.4885C88.7888 41.4885 90.7332 42.2607 92.1773 43.6559C93.6238 45.0533 94.4497 46.9637 94.4497 48.9708V87.3465C94.4497 88.451 93.5542 89.3465 92.4497 89.3465C91.3451 89.3465 90.4497 88.451 90.4497 87.3465V48.9708C90.4497 48.0699 90.0799 47.1914 89.398 46.5326C88.7138 45.8716 87.7716 45.4885 86.7752 45.4885Z" fill="black"/>
<path fill-rule="evenodd" clip-rule="evenodd" d="M75.6627 37C74.7612 37 73.8901 37.3635 73.2428 38.0211C72.5945 38.6797 72.2247 39.5796 72.2247 40.5244V73.6705C72.2247 74.775 71.3293 75.6705 70.2247 75.6705C69.1202 75.6705 68.2247 74.775 68.2247 73.6705V40.5244C68.2247 38.5388 69.0008 36.6284 70.3922 35.215C71.7845 33.8005 73.6798 33 75.6627 33C77.6457 33 79.5409 33.8005 80.9333 35.215C82.3246 36.6284 83.1007 38.5388 83.1007 40.5244V73.6705C83.1007 74.775 82.2053 75.6705 81.1007 75.6705C79.9961 75.6705 79.1007 74.775 79.1007 73.6705V40.5244C79.1007 39.5796 78.731 38.6797 78.0826 38.0211C77.4354 37.3635 76.5643 37 75.6627 37Z" fill="black"/>
<path fill-rule="evenodd" clip-rule="evenodd" d="M96.9181 71.2914C98.9678 67.393 103.815 66.4441 107.355 68.4576C109.166 69.4872 110.32 71.0453 110.777 72.8977C111.22 74.6958 110.973 76.6216 110.301 78.4474C110.3 78.4484 110.3 78.4494 110.3 78.4505L101.168 103.423C101.157 103.452 101.146 103.48 101.134 103.509C99.2919 107.908 96.6738 112.089 92.3721 115.146C88.0618 118.21 82.2678 120 74.3379 120C66.2564 120 59.1 117.294 53.9788 111.726C48.8724 106.174 46 98.0073 46 87.4722C46 86.3676 46.8954 85.4722 48 85.4722C49.1046 85.4722 50 86.3676 50 87.4722C50 97.3004 52.6724 104.397 56.9229 109.018C61.1586 113.624 67.1712 116 74.3379 116C81.6563 116 86.5803 114.356 90.0548 111.886C93.5258 109.419 95.756 105.983 97.4273 102.005L106.545 77.0719L106.546 77.0671C107.027 75.7629 107.095 74.6726 106.893 73.8551C106.705 73.0911 106.254 72.4333 105.378 71.9348L105.377 71.9346C103.565 70.9036 101.383 71.4971 100.496 73.0831L94.2058 88.2389C93.7823 89.259 92.6121 89.7428 91.5919 89.3194C90.5717 88.8959 90.0879 87.7256 90.5114 86.7054L96.8411 71.4554C96.8643 71.3996 96.89 71.3449 96.9181 71.2914Z" fill="black"/>
<path fill-rule="evenodd" clip-rule="evenodd" d="M77.3461 90.139C77.4944 90.161 77.6442 90.1721 77.7941 90.1721C78.8932 90.1721 79.9611 89.592 80.8033 88.5382C81.5528 87.6002 82.0737 86.3375 82.2718 84.9809C82.7404 81.754 81.3129 78.966 79.022 78.6286C78.8737 78.6066 78.724 78.5955 78.574 78.5955C77.4763 78.5969 76.4063 79.1763 75.5655 80.228C74.8153 81.1653 74.2916 82.4294 74.0963 83.7881C73.6277 87.0151 75.0552 89.803 77.3461 90.139ZM68.8085 90.1722C67.7101 90.1722 66.6414 89.592 65.7993 88.5382C65.0491 87.6002 64.5254 86.3375 64.33 84.9824C63.8615 81.754 65.289 78.9661 67.5799 78.6301C67.7282 78.608 67.8779 78.5969 68.0279 78.5969C69.1255 78.5969 70.1956 79.1764 71.0364 80.228C71.7866 81.1654 72.3103 82.4295 72.5063 83.7867C72.9748 87.0151 71.5474 89.803 69.2565 90.139C69.1082 90.1611 68.9584 90.1722 68.8085 90.1722ZM89.8891 88.1077C89.4963 87.1767 88.8438 86.5055 88.0016 86.1674L87.9903 86.1632C87.607 86.0134 87.1989 85.9368 86.7872 85.9373H86.7419C84.8141 85.9662 82.8459 87.6002 81.8452 90.0035C81.1113 91.7609 81.027 93.6511 81.6201 95.0599C82.0122 95.9915 82.6661 96.6628 83.5118 97.0008L83.521 97.0044C83.9044 97.154 84.3125 97.2306 84.7242 97.2302C86.6704 97.2302 88.6591 95.5963 89.6782 93.1612C90.4029 91.4059 90.4829 89.5172 89.8891 88.1077ZM82.1864 98.4731C81.0746 97.8068 80.0236 97.1766 79.3371 96.0444C77.4433 92.9106 76.2996 91.0191 73.301 91.0191C70.3024 91.0191 69.1559 92.9106 67.2578 96.0444C66.5706 97.1768 65.519 97.8076 64.4049 98.476L64.4014 98.4781L64.4013 98.4781C63.1225 99.2446 61.8012 100.037 61.2308 101.595C61.0091 102.157 60.8974 102.756 60.9017 103.359C60.9017 105.897 62.8834 107.961 65.3179 107.961C66.5741 107.961 67.911 107.527 69.3257 107.068C70.686 106.626 72.0922 106.169 73.3081 106.169C74.5239 106.169 75.9266 106.626 77.2819 107.068L77.3201 107.08C78.7178 107.532 80.0357 107.958 81.2841 107.958C83.7151 107.958 85.6932 105.894 85.6932 103.357C85.6952 102.752 85.5811 102.153 85.357 101.592C84.7867 100.033 83.465 99.2399 82.1871 98.4735L82.1864 98.4731ZM63.0907 97.0008L63.0808 97.0044C62.6982 97.1539 62.2908 97.2306 61.8798 97.2302C59.9357 97.2302 57.9477 95.5956 56.9335 93.1634C56.2011 91.4059 56.1175 89.5179 56.7106 88.1062C57.102 87.1753 57.7552 86.5019 58.5974 86.1667L58.6073 86.1632C58.9906 86.0133 59.3987 85.9367 59.8104 85.9373C61.7545 85.9373 63.7425 87.5719 64.7567 90.0042C65.4892 91.7616 65.5727 93.6497 64.9796 95.0613C64.5883 95.9922 63.935 96.6628 63.0907 97.0008Z" fill="#FFC41E"/>
</svg>
