<svg width="82" height="111" viewBox="0 0 82 111" fill="none" xmlns="http://www.w3.org/2000/svg">
<path d="M2 68.9351V30.1564C2 28.2865 2.7326 26.4931 4.03663 25.1709C5.34066 23.8486 7.10931 23.1058 8.95349 23.1058V23.1058C10.7977 23.1058 12.5663 23.8486 13.8703 25.1709C15.1744 26.4931 15.907 28.2865 15.907 30.1564V54.8338" stroke="black" stroke-width="4" stroke-linecap="round" stroke-linejoin="round"/>
<path d="M15.9068 55.0657V16.287C15.9068 14.417 16.6713 12.6237 18.032 11.3014C19.3927 9.97916 21.2383 9.23633 23.1626 9.23633C25.087 9.23633 26.9325 9.97916 28.2933 11.3014C29.654 12.6237 30.4185 14.417 30.4185 16.287V51.5404" stroke="black" stroke-width="4" stroke-linecap="round" stroke-linejoin="round"/>
<path d="M44.3259 51.629V19.8646C44.3259 18.0054 45.0903 16.2223 46.451 14.9077C47.8118 13.5931 49.6573 12.8545 51.5817 12.8545V12.8545C53.506 12.8545 55.3516 13.5931 56.7123 14.9077C58.073 16.2223 58.8375 18.0054 58.8375 19.8646V68.9352" stroke="black" stroke-width="4" stroke-linecap="round" stroke-linejoin="round"/>
<path d="M30.4183 51.4475V9.06392C30.4183 7.19045 31.1509 5.39372 32.4549 4.06898C33.759 2.74423 35.5276 2 37.3718 2C39.216 2 40.9846 2.74423 42.2887 4.06898C43.5927 5.39372 44.3253 7.19045 44.3253 9.06392V51.4475" stroke="black" stroke-width="4" stroke-linecap="round" stroke-linejoin="round"/>
<path d="M2 69.0959C2 95.1344 16.1802 108.132 35.678 108.132C55.1758 108.132 63.0879 99.3485 67.5834 88.6137L79.2622 56.6755C80.7378 52.6722 80.0687 48.9593 76.6322 47.0053C73.1935 45.0491 68.6758 46.0561 66.8146 49.5959L58.7208 69.0959" stroke="black" stroke-width="4" stroke-linecap="round" stroke-linejoin="round"/>
<path fill-rule="evenodd" clip-rule="evenodd" d="M39.5242 72.5056C39.7138 72.5338 39.9053 72.548 40.097 72.548C41.5024 72.548 42.868 71.8062 43.9449 70.4587C44.9032 69.2593 45.5693 67.6447 45.8227 65.9101C46.4217 61.7838 44.5964 58.2189 41.6671 57.7875C41.4775 57.7592 41.286 57.7451 41.0943 57.7451C39.6907 57.7469 38.3224 58.4878 37.2473 59.8326C36.2881 61.0311 35.6184 62.6475 35.3686 64.3848C34.7695 68.5111 36.5948 72.076 39.5242 72.5056ZM28.6075 72.5481C27.203 72.5481 25.8365 71.8063 24.7596 70.4588C23.8004 69.2594 23.1307 67.6448 22.881 65.912C22.2819 61.7839 24.1072 58.219 27.0365 57.7894C27.2261 57.7611 27.4176 57.747 27.6093 57.747C29.0129 57.747 30.3812 58.4879 31.4563 59.8327C32.4156 61.0312 33.0852 62.6476 33.3359 64.3831C33.935 68.5112 32.1097 72.0761 29.1803 72.5057C28.9907 72.5339 28.7992 72.5481 28.6075 72.5481ZM55.5632 69.9082C55.0609 68.7178 54.2266 67.8595 53.1497 67.4272L53.1352 67.4218C52.645 67.2303 52.1232 67.1324 51.5968 67.133H51.5389C49.0738 67.17 46.5571 69.2593 45.2775 72.3324C44.339 74.5796 44.2314 76.9965 44.9897 78.7979C45.4911 79.9893 46.3272 80.8475 47.4086 81.2798L47.4204 81.2844C47.9106 81.4757 48.4324 81.5736 48.9588 81.5732C51.4475 81.5732 53.9904 79.4838 55.2935 76.3702C56.2202 74.1256 56.3224 71.7105 55.5632 69.9082ZM45.7136 83.1626C44.2919 82.3106 42.948 81.5047 42.0702 80.057C39.6486 76.0499 38.1862 73.6312 34.3519 73.6312C30.5176 73.6312 29.0516 76.0499 26.6245 80.057C25.7458 81.505 24.4011 82.3116 22.9766 83.1662L22.9765 83.1662L22.9721 83.1689L22.9719 83.169C21.3367 84.1491 19.6472 85.1617 18.9179 87.1544C18.6343 87.8727 18.4915 88.6387 18.4971 89.4107C18.4971 92.6552 21.0309 95.295 24.144 95.295C25.7503 95.295 27.4597 94.74 29.2687 94.1524C31.0081 93.5875 32.8062 93.0035 34.3609 93.0035C35.9156 93.0035 37.7093 93.5875 39.4422 94.1524L39.491 94.1682L39.4911 94.1682C41.2783 94.7463 42.9635 95.2914 44.5598 95.2914C47.6683 95.2914 50.1976 92.6516 50.1976 89.407C50.2002 88.6345 50.0543 87.8686 49.7678 87.1508C49.0385 85.1565 47.3485 84.143 45.7144 83.1631L45.7136 83.1626ZM21.2962 81.2798L21.2835 81.2844C20.7942 81.4756 20.2733 81.5736 19.7478 81.5732C17.2619 81.5732 14.7199 79.4829 13.4231 76.3729C12.4864 74.1257 12.3797 71.7114 13.138 69.9064C13.6385 68.716 14.4737 67.855 15.5506 67.4263L15.5633 67.4218C16.0534 67.2302 16.5753 67.1322 17.1017 67.133C19.5876 67.133 22.1296 69.2232 23.4264 72.3333C24.3631 74.5805 24.4699 76.9947 23.7115 78.7997C23.2111 79.9902 22.3758 80.8475 21.2962 81.2798Z" fill="#FFC41E"/>
</svg>
