<svg width="118" height="115" viewBox="0 0 118 115" fill="none" xmlns="http://www.w3.org/2000/svg">
<path d="M45.0464 28.0604L67.7184 35.8854V67.8066C67.7184 68.4267 67.4635 69.0214 67.0098 69.4599C66.5561 69.8983 65.9407 70.1447 65.2991 70.1447H55.6218C54.9802 70.1447 54.3648 69.8983 53.9111 69.4599C53.4574 69.0214 53.2025 68.4267 53.2025 67.8066V51.4405H29.0094V67.8066C29.0094 68.4267 28.7545 69.0214 28.3008 69.4599C27.8471 69.8983 27.2317 70.1447 26.5901 70.1447H16.9128C16.2712 70.1447 15.6558 69.8983 15.2021 69.4599C14.7484 69.0214 14.4935 68.4267 14.4935 67.8066V36.5488C8.87468 34.6127 4.81628 29.4719 4.81628 23.3843C4.81628 22.1442 5.32607 20.9548 6.23348 20.0779C7.1409 19.201 8.37163 18.7083 9.65491 18.7083C10.9382 18.7083 12.1689 19.201 13.0763 20.0779C13.9838 20.9548 14.4935 22.1442 14.4935 23.3843C14.4959 24.6238 15.0065 25.8118 15.9134 26.6882C16.8203 27.5647 18.0496 28.0581 19.3322 28.0604H45.0464ZM82.2343 11.6943V16.3703C82.2343 18.8506 81.2147 21.2293 79.3999 22.9832C77.585 24.737 75.1236 25.7224 72.557 25.7224H67.7184V30.9215L48.3639 24.2421V2.34219C48.3639 0.259897 50.9677 -0.783443 52.4934 0.689507L56.6183 4.68021H64.7275C66.3772 4.68021 68.3187 5.83753 69.0551 7.26518L70.1377 9.35624H79.815C80.4566 9.35624 81.072 9.60257 81.5257 10.041C81.9794 10.4795 82.2343 11.0742 82.2343 11.6943ZM65.2991 11.6943C65.2991 11.2318 65.1572 10.7798 64.8914 10.3953C64.6255 10.0108 64.2477 9.71117 63.8056 9.53421C63.3635 9.35725 62.8771 9.31095 62.4078 9.40116C61.9385 9.49138 61.5074 9.71405 61.1691 10.041C60.8307 10.368 60.6003 10.7846 60.507 11.2381C60.4136 11.6917 60.4615 12.1618 60.6446 12.589C60.8277 13.0162 61.1378 13.3813 61.5357 13.6382C61.9335 13.8952 62.4013 14.0323 62.8798 14.0323C63.5214 14.0323 64.1368 13.7859 64.5905 13.3475C65.0442 12.909 65.2991 12.3143 65.2991 11.6943Z" fill="#242424"/>
<path d="M24.3154 41.927C19.3889 41.927 14.8386 44.3676 12.0987 48.4341L1.84381 63.6223C0.636938 65.4132 -0.00487338 67.5194 6.33429e-05 69.6728V93.8782C-0.00673576 95.5001 0.533995 97.0777 1.53626 98.3601C2.53852 99.6424 3.94475 100.556 5.53131 100.955L15.0967 103.356C15.7846 106.639 17.5915 109.589 20.214 111.709C22.8366 113.829 26.1153 114.991 29.5 115C36.3293 115 42.0302 110.32 43.6748 104.039H78.0128C79.6574 110.32 85.3583 115 92.1875 115C99.0168 115 104.718 110.32 106.362 104.039H110.625C114.659 104.039 118 100.729 118 96.7317V83.374C117.996 80.1173 116.895 76.9552 114.87 74.39C112.845 71.8249 110.012 70.0038 106.823 69.2161L86.8849 64.1923L72.4815 47.1809C71.1037 45.5382 69.3779 44.2159 67.4266 43.3079C65.4752 42.4 63.3462 41.9285 61.1904 41.927H24.3154ZM24.3154 49.2343H40.5625V63.8489H10.6016L18.2089 52.5445V52.4312C18.877 51.437 19.7852 50.6238 20.8509 50.0655C21.9167 49.5072 23.1063 49.2215 24.3117 49.2343H24.3154ZM47.9375 49.2343H61.1904C63.3771 49.2343 65.4384 50.1915 66.836 51.8613L76.9766 63.8489H47.9375V49.2343ZM7.37506 71.1562H84.3516L105.094 76.2932C106.685 76.6845 108.097 77.5964 109.101 78.8813C110.105 80.1663 110.642 81.7492 110.625 83.374V96.7317H106.362C104.718 90.4511 99.0168 85.7707 92.1875 85.7707C85.3583 85.7707 79.6574 90.4511 78.0128 96.7317H43.6748C42.0302 90.4511 36.3293 85.7707 29.5 85.7707C22.9621 85.7707 17.4714 90.0528 15.5576 95.9315L7.37506 93.8818V71.1562ZM29.5 93.078C33.619 93.078 36.875 96.3042 36.875 100.385C36.875 104.466 33.619 107.693 29.5 107.693C25.3811 107.693 22.125 104.466 22.125 100.385C22.125 96.3042 25.3811 93.078 29.5 93.078ZM92.1875 93.078C96.3064 93.078 99.5625 96.3042 99.5625 100.385C99.5625 104.466 96.3064 107.693 92.1875 107.693C88.0686 107.693 84.8125 104.466 84.8125 100.385C84.8125 96.3042 88.0686 93.078 92.1875 93.078Z" fill="#FFC41E"/>
</svg>
