<svg width="150" height="150" viewBox="0 0 150 150" fill="none" xmlns="http://www.w3.org/2000/svg">
<path fill-rule="evenodd" clip-rule="evenodd" d="M75 148C115.317 148 148 115.317 148 75C148 34.6832 115.317 2 75 2C34.6832 2 2 34.6832 2 75C2 115.317 34.6832 148 75 148ZM75 150C116.421 150 150 116.421 150 75C150 33.5786 116.421 0 75 0C33.5786 0 0 33.5786 0 75C0 116.421 33.5786 150 75 150Z" fill="#FFC41E"/>
<path d="M67.6852 54.7643L83.6325 60.2758V82.7595C83.6325 83.1962 83.4532 83.6151 83.134 83.9239C82.8149 84.2328 82.3821 84.4062 81.9307 84.4062H75.1239C74.6725 84.4062 74.2397 84.2328 73.9206 83.9239C73.6014 83.6151 73.4221 83.1962 73.4221 82.7595V71.232H56.405V82.7595C56.405 83.1962 56.2257 83.6151 55.9065 83.9239C55.5874 84.2328 55.1546 84.4062 54.7032 84.4062H47.8964C47.445 84.4062 47.0122 84.2328 46.6931 83.9239C46.3739 83.6151 46.1946 83.1962 46.1946 82.7595V60.7431C42.2424 59.3794 39.3878 55.7585 39.3878 51.4707C39.3878 50.5972 39.7463 49.7595 40.3846 49.1418C41.0229 48.5242 41.8885 48.1772 42.7912 48.1772C43.6938 48.1772 44.5595 48.5242 45.1978 49.1418C45.8361 49.7595 46.1946 50.5972 46.1946 51.4707C46.1963 52.3437 46.5554 53.1805 47.1933 53.7978C47.8312 54.4151 48.6959 54.7626 49.5981 54.7643H67.6852ZM93.8428 43.2368V46.5304C93.8428 48.2774 93.1256 49.9528 91.8491 51.1882C90.5726 52.4235 88.8412 53.1175 87.0359 53.1175H83.6325V56.7795L70.0187 52.0749V36.6497C70.0187 35.1831 71.8502 34.4482 72.9233 35.4857L75.8248 38.2965H81.5287C82.6891 38.2965 84.0547 39.1116 84.5727 40.1172L85.3342 41.59H92.1411C92.5924 41.59 93.0252 41.7635 93.3444 42.0724C93.6635 42.3812 93.8428 42.8001 93.8428 43.2368ZM81.9307 43.2368C81.9307 42.9111 81.8309 42.5927 81.644 42.3219C81.457 42.0511 81.1912 41.84 80.8802 41.7154C80.5693 41.5908 80.2271 41.5582 79.897 41.6217C79.5669 41.6852 79.2637 41.8421 79.0257 42.0724C78.7877 42.3027 78.6257 42.5961 78.56 42.9156C78.4943 43.235 78.528 43.5661 78.6568 43.867C78.7856 44.1679 79.0038 44.4251 79.2836 44.6061C79.5634 44.787 79.8925 44.8836 80.229 44.8836C80.6803 44.8836 81.1132 44.7101 81.4323 44.4013C81.7515 44.0924 81.9307 43.6736 81.9307 43.2368Z" fill="#242424"/>
<path d="M53.1032 64.5312C49.638 64.5312 46.4373 66.2503 44.5101 69.1145L37.2969 79.8123C36.448 81.0737 35.9966 82.5572 36 84.0739V101.123C35.9953 102.265 36.3756 103.377 37.0806 104.28C37.7856 105.183 38.7747 105.826 39.8907 106.108L46.6189 107.798C47.1027 110.111 48.3736 112.189 50.2183 113.682C52.063 115.175 54.3692 115.994 56.75 116C61.5537 116 65.5636 112.703 66.7204 108.28H90.8734C92.0302 112.703 96.0401 116 100.844 116C105.647 116 109.657 112.703 110.814 108.28H113.812C116.65 108.28 119 105.948 119 103.133V93.7243C118.998 91.4305 118.223 89.2033 116.798 87.3965C115.374 85.5897 113.382 84.3071 111.138 83.7523L97.1139 80.2138L86.9828 68.2319C86.0136 67.0748 84.7997 66.1434 83.4272 65.5039C82.0546 64.8644 80.5571 64.5323 79.0407 64.5312H53.1032ZM53.1032 69.6781H64.5313V79.9719H43.4571L48.808 72.0097V71.9299C49.2779 71.2296 49.9167 70.6568 50.6663 70.2636C51.416 69.8704 52.2527 69.6691 53.1006 69.6781H53.1032ZM69.7188 69.6781H79.0407C80.5788 69.6781 82.0287 70.3524 83.0117 71.5284L90.1445 79.9719H69.7188V69.6781ZM41.1875 85.1187H95.332L109.922 88.737C111.041 89.0126 112.035 89.6549 112.741 90.56C113.447 91.465 113.824 92.5799 113.812 93.7243V103.133H110.814C109.657 98.7091 105.647 95.4125 100.844 95.4125C96.0401 95.4125 92.0302 98.7091 90.8734 103.133H66.7204C65.5636 98.7091 61.5537 95.4125 56.75 95.4125C52.1513 95.4125 48.2892 98.4286 46.9431 102.569L41.1875 101.126V85.1187ZM56.75 100.559C59.6473 100.559 61.9375 102.832 61.9375 105.706C61.9375 108.581 59.6473 110.853 56.75 110.853C53.8528 110.853 51.5625 108.581 51.5625 105.706C51.5625 102.832 53.8528 100.559 56.75 100.559ZM100.844 100.559C103.741 100.559 106.031 102.832 106.031 105.706C106.031 108.581 103.741 110.853 100.844 110.853C97.9465 110.853 95.6563 108.581 95.6563 105.706C95.6563 102.832 97.9465 100.559 100.844 100.559Z" fill="#FFC41E"/>
</svg>
