<svg width="127" height="100" viewBox="0 0 127 100" fill="none" xmlns="http://www.w3.org/2000/svg">
<mask id="path-1-inside-1" fill="white">
<path fill-rule="evenodd" clip-rule="evenodd" d="M39.3699 0H18.9559V18.967H0V39.3932H18.9559V58.3604H39.3699V39.3932H58.3257V18.967H39.3699V0Z"/>
</mask>
<path d="M18.9559 0V-4H14.9559V0H18.9559ZM39.3699 0H43.3699V-4H39.3699V0ZM18.9559 18.967V22.967H22.9559V18.967H18.9559ZM0 18.967V14.967H-4V18.967H0ZM0 39.3932H-4V43.3932H0V39.3932ZM18.9559 39.3932H22.9559V35.3932H18.9559V39.3932ZM18.9559 58.3604H14.9559V62.3604H18.9559V58.3604ZM39.3699 58.3604V62.3604H43.3699V58.3604H39.3699ZM39.3699 39.3932V35.3932H35.3699V39.3932H39.3699ZM58.3257 39.3932V43.3932H62.3257V39.3932H58.3257ZM58.3257 18.967H62.3257V14.967H58.3257V18.967ZM39.3699 18.967H35.3699V22.967H39.3699V18.967ZM18.9559 4H39.3699V-4H18.9559V4ZM22.9559 18.967V0H14.9559V18.967H22.9559ZM0 22.967H18.9559V14.967H0V22.967ZM4 39.3932V18.967H-4V39.3932H4ZM18.9559 35.3932H0V43.3932H18.9559V35.3932ZM22.9559 58.3604V39.3932H14.9559V58.3604H22.9559ZM39.3699 54.3604H18.9559V62.3604H39.3699V54.3604ZM35.3699 39.3932V58.3604H43.3699V39.3932H35.3699ZM58.3257 35.3932H39.3699V43.3932H58.3257V35.3932ZM54.3257 18.967V39.3932H62.3257V18.967H54.3257ZM39.3699 22.967H58.3257V14.967H39.3699V22.967ZM35.3699 0V18.967H43.3699V0H35.3699Z" fill="#FFC41E" mask="url(#path-1-inside-1)"/>
<path d="M59.7374 51.9967L85.4504 60.9223V97.3331C85.4504 98.0404 85.1614 98.7187 84.6468 99.2188C84.1322 99.719 83.4343 99.9999 82.7066 99.9999H71.7313C71.0036 99.9999 70.3057 99.719 69.7912 99.2188C69.2766 98.7187 68.9875 98.0404 68.9875 97.3331V78.6652H41.5494V97.3331C41.5494 98.0404 41.2603 98.7187 40.7457 99.2188C40.2312 99.719 39.5333 99.9999 38.8056 99.9999H27.8303C27.1026 99.9999 26.4047 99.719 25.8901 99.2188C25.3756 98.7187 25.0865 98.0404 25.0865 97.3331V61.679C18.714 59.4705 14.1112 53.6068 14.1112 46.663C14.1112 45.2484 14.6894 43.8918 15.7185 42.8915C16.7476 41.8912 18.1434 41.3293 19.5988 41.3293C21.0542 41.3293 22.4501 41.8912 23.4792 42.8915C24.5083 43.8918 25.0865 45.2484 25.0865 46.663C25.0892 48.0768 25.6682 49.4319 26.6968 50.4316C27.7253 51.4312 29.1195 51.994 30.5741 51.9967H59.7374ZM101.913 33.3287V38.6624C101.913 41.4916 100.757 44.2049 98.6987 46.2054C96.6405 48.206 93.8489 49.3298 90.9381 49.3298H85.4504V55.2602L63.4999 47.6414V22.6614C63.4999 20.2862 66.4529 19.0961 68.1833 20.7762L72.8615 25.3282H82.0584C83.9293 25.3282 86.1312 26.6483 86.9664 28.2767L88.1942 30.6619H99.1695C99.8972 30.6619 100.595 30.9429 101.11 31.443C101.624 31.9431 101.913 32.6215 101.913 33.3287ZM82.7066 33.3287C82.7066 32.8013 82.5457 32.2857 82.2442 31.8471C81.9427 31.4086 81.5142 31.0667 81.0128 30.8649C80.5114 30.6631 79.9598 30.6102 79.4275 30.7131C78.8953 30.816 78.4064 31.07 78.0226 31.443C77.6389 31.816 77.3776 32.2912 77.2717 32.8085C77.1658 33.3258 77.2202 33.862 77.4278 34.3493C77.6355 34.8366 77.9872 35.2531 78.4384 35.5462C78.8896 35.8392 79.4201 35.9956 79.9628 35.9956C80.6905 35.9956 81.3884 35.7146 81.903 35.2145C82.4175 34.7144 82.7066 34.036 82.7066 33.3287Z" fill="#242424"/>
<path d="M127 83.5273C127 92.7049 119.466 99.9999 109.988 99.9999H95.4068C85.9289 99.9999 78.3951 92.7049 78.3951 83.5273V76.4675H127V83.5273Z" fill="#FFC41E"/>
</svg>
