<svg width="90" height="90" viewBox="0 0 90 90" fill="none" xmlns="http://www.w3.org/2000/svg">
<path d="M36.8429 35.197C38.1189 31.4474 36.1124 27.372 32.3621 26.0958C28.6119 24.8196 24.5373 26.8257 23.2614 30.5753C21.9845 34.3275 23.9894 38.4009 27.7404 39.6773C31.4913 40.9538 35.566 38.9493 36.8429 35.197Z" fill="white"/>
<path d="M65.7829 38.9488C62.0333 37.6729 57.9581 39.6787 56.6822 43.4283C55.4053 47.1805 57.412 51.2531 61.1616 52.529C64.9119 53.8052 68.9862 51.8021 70.263 48.0498C71.539 44.3002 69.5338 40.2252 65.7829 38.9488Z" fill="white"/>
<path d="M54.7326 51.1988C54.4586 50.4563 54.0195 49.5553 53.4926 48.5878C52.348 45.2375 49.7297 42.4309 46.1194 41.2023C42.9061 40.1089 39.5546 40.4865 36.7753 41.9598C35.2722 42.5742 33.9059 43.2083 32.9741 43.7952L32.3523 44.182C29.4533 45.983 25.8452 48.2232 24.0692 53.5038C22.4206 58.4078 25.0523 63.7524 29.9362 65.4144C31.2905 65.8785 32.7337 66.0235 34.1533 65.838C35.5729 65.6525 36.9304 65.1416 38.12 64.345C38.5768 65.7022 39.3411 66.9355 40.3533 67.9486C41.3655 68.9616 42.5981 69.727 43.9549 70.1849C48.8368 71.8462 54.1813 69.2166 55.867 64.3244C57.6806 59.0566 56.1872 55.0804 54.9891 51.8852L54.7326 51.1988Z" fill="white"/>
<path d="M48.0641 37.0311C52.1965 38.4374 56.6865 36.2274 58.0927 32.0949C59.499 27.9625 57.289 23.4725 53.1565 22.0663C49.0241 20.66 44.5341 22.87 43.1279 27.0025C41.7216 31.1349 43.9316 35.6249 48.0641 37.0311Z" fill="white"/>
</svg>
