<svg width="174" height="145" viewBox="0 0 174 145" fill="none" xmlns="http://www.w3.org/2000/svg">
<path fill-rule="evenodd" clip-rule="evenodd" d="M85.9659 5.49226C86.8282 4.41391 88.4013 4.23875 89.4797 5.10103L160.476 61.8717C161.554 62.734 161.73 64.3072 160.867 65.3856C160.005 66.4639 158.432 66.6391 157.353 65.7768L86.3571 9.00608C85.2788 8.14381 85.1036 6.57061 85.9659 5.49226Z" fill="#242424"/>
<path fill-rule="evenodd" clip-rule="evenodd" d="M89.8713 5.49226C90.7335 6.57061 90.5584 8.14381 89.48 9.00608L18.4837 65.7768C17.4054 66.6391 15.8322 66.4639 14.9699 65.3856C14.1076 64.3072 14.2828 62.734 15.3611 61.8717L86.3574 5.10103C87.4358 4.23875 89.009 4.41391 89.8713 5.49226Z" fill="#242424"/>
<path fill-rule="evenodd" clip-rule="evenodd" d="M38.2211 47.1316C39.6018 47.1316 40.7211 48.2509 40.7211 49.6316V141.884C40.7211 143.265 39.6018 144.384 38.2211 144.384C36.8404 144.384 35.7211 143.265 35.7211 141.884V49.6316C35.7211 48.2509 36.8404 47.1316 38.2211 47.1316Z" fill="#242424"/>
<path fill-rule="evenodd" clip-rule="evenodd" d="M137.616 47.1316C138.997 47.1316 140.116 48.2509 140.116 49.6316V141.884C140.116 143.265 138.997 144.384 137.616 144.384C136.235 144.384 135.116 143.265 135.116 141.884V49.6316C135.116 48.2509 136.235 47.1316 137.616 47.1316Z" fill="#242424"/>
<path fill-rule="evenodd" clip-rule="evenodd" d="M35.7211 141.884C35.7211 140.503 36.8404 139.384 38.2211 139.384H137.616C138.997 139.384 140.116 140.503 140.116 141.884C140.116 143.265 138.997 144.384 137.616 144.384H38.2211C36.8404 144.384 35.7211 143.265 35.7211 141.884Z" fill="#242424"/>
<path d="M88.4295 81.1502L106.949 87.6139V113.982C106.949 114.494 106.741 114.985 106.37 115.347C105.999 115.709 105.497 115.913 104.973 115.913H97.0679C96.5438 115.913 96.0411 115.709 95.6705 115.347C95.2999 114.985 95.0917 114.494 95.0917 113.982V100.463H75.3298V113.982C75.3298 114.494 75.1216 114.985 74.751 115.347C74.3804 115.709 73.8778 115.913 73.3536 115.913H65.4489C64.9248 115.913 64.4221 115.709 64.0515 115.347C63.6809 114.985 63.4727 114.494 63.4727 113.982V88.1619C58.883 86.5626 55.568 82.3162 55.568 77.2877C55.568 76.2633 55.9844 75.2809 56.7256 74.5565C57.4668 73.8322 58.4721 73.4252 59.5203 73.4252C60.5686 73.4252 61.5739 73.8322 62.3151 74.5565C63.0563 75.2809 63.4727 76.2633 63.4727 77.2877C63.4747 78.3115 63.8917 79.2929 64.6325 80.0168C65.3733 80.7408 66.3774 81.1483 67.4251 81.1502H88.4295ZM118.806 67.6314V71.4939C118.806 73.5428 117.973 75.5077 116.491 76.9564C115.008 78.4051 112.998 79.219 110.901 79.219H106.949V83.5136L91.1393 77.9963V59.9064C91.1393 58.1864 93.2662 57.3245 94.5124 58.5412L97.8818 61.8376H104.506C105.853 61.8376 107.439 62.7936 108.041 63.9729L108.925 65.7002H116.83C117.354 65.7002 117.857 65.9036 118.227 66.2658C118.598 66.628 118.806 67.1192 118.806 67.6314ZM104.973 67.6314C104.973 67.2495 104.857 66.8761 104.64 66.5585C104.422 66.2409 104.114 65.9934 103.753 65.8472C103.392 65.701 102.994 65.6628 102.611 65.7373C102.228 65.8118 101.875 65.9957 101.599 66.2658C101.323 66.5359 101.134 66.88 101.058 67.2547C100.982 67.6293 101.021 68.0176 101.171 68.3705C101.32 68.7234 101.574 69.025 101.899 69.2372C102.224 69.4494 102.606 69.5627 102.996 69.5627C103.521 69.5627 104.023 69.3592 104.394 68.997C104.764 68.6349 104.973 68.1436 104.973 67.6314Z" fill="#242424"/>
<path d="M74.708 11.8739C73.7268 9.55032 72.312 7.44471 70.5429 5.67495C68.7724 3.8999 66.6849 2.4893 64.394 1.51985C62.0185 0.510592 59.4706 -0.00600271 56.8983 5.26228e-05C53.2895 5.26228e-05 49.7686 1.01075 46.7088 2.91985C45.9768 3.37654 45.2814 3.87815 44.6226 4.42467C43.9638 3.87815 43.2684 3.37654 42.5364 2.91985C39.4766 1.01075 35.9557 5.26228e-05 32.3469 5.26228e-05C29.7483 5.26228e-05 27.2302 0.509146 24.8512 1.51985C22.5527 2.49311 20.4811 3.89312 18.7023 5.67495C16.9308 7.44272 15.5157 9.54882 14.5372 11.8739C13.5197 14.2921 13 16.86 13 19.5028C13 21.9959 13.4978 24.5938 14.486 27.2365C15.3131 29.4451 16.499 31.736 18.0142 34.0494C20.4152 37.7104 23.7165 41.5286 27.8158 45.3992C34.6088 51.8153 41.3359 56.2474 41.6214 56.4271L43.3562 57.565C44.1248 58.0667 45.113 58.0667 45.8816 57.565L47.6165 56.4271C47.902 56.2399 54.6218 51.8153 61.4221 45.3992C65.5213 41.5286 68.8227 37.7104 71.2237 34.0494C72.7389 31.736 73.9321 29.4451 74.7519 27.2365C75.7401 24.5938 76.2379 21.9959 76.2379 19.5028C76.2452 16.86 75.7255 14.2921 74.708 11.8739Z" fill="#FFC41E"/>
</svg>
