<svg width="49" height="49" viewBox="0 0 49 49" fill="none" xmlns="http://www.w3.org/2000/svg">
<circle cx="24.5" cy="24.5" r="23.5" stroke="#FFC41E" stroke-width="2"/>
<path d="M24.4964 19.9981C22.0175 19.9981 19.9945 22.0211 19.9945 24.5C19.9945 26.9789 22.0175 29.0019 24.4964 29.0019C26.9752 29.0019 28.9982 26.9789 28.9982 24.5C28.9982 22.0211 26.9752 19.9981 24.4964 19.9981ZM37.9985 24.5C37.9985 22.6357 38.0154 20.7884 37.9107 18.9275C37.806 16.766 37.3129 14.8477 35.7324 13.2672C34.1485 11.6832 32.2336 11.1935 30.0722 11.0888C28.2079 10.9841 26.3606 11.001 24.4997 11.001C22.6355 11.001 20.7882 10.9841 18.9273 11.0888C16.7659 11.1935 14.8477 11.6866 13.2671 13.2672C11.6832 14.8511 11.1935 16.766 11.0888 18.9275C10.9841 20.7917 11.001 22.6391 11.001 24.5C11.001 26.3609 10.9841 28.2116 11.0888 30.0725C11.1935 32.234 11.6866 34.1523 13.2671 35.7328C14.851 37.3168 16.7659 37.8065 18.9273 37.9112C20.7916 38.0159 22.6389 37.999 24.4997 37.999C26.364 37.999 28.2113 38.0159 30.0722 37.9112C32.2336 37.8065 34.1518 37.3134 35.7324 35.7328C37.3163 34.1489 37.806 32.234 37.9107 30.0725C38.0188 28.2116 37.9985 26.3643 37.9985 24.5ZM24.4964 31.4268C20.6632 31.4268 17.5697 28.3332 17.5697 24.5C17.5697 20.6668 20.6632 17.5732 24.4964 17.5732C28.3295 17.5732 31.423 20.6668 31.423 24.5C31.423 28.3332 28.3295 31.4268 24.4964 31.4268ZM31.7067 18.9072C30.8118 18.9072 30.089 18.1845 30.089 17.2895C30.089 16.3945 30.8118 15.6718 31.7067 15.6718C32.6017 15.6718 33.3244 16.3945 33.3244 17.2895C33.3247 17.502 33.283 17.7125 33.2018 17.9089C33.1206 18.1053 33.0015 18.2837 32.8512 18.434C32.7009 18.5843 32.5225 18.7034 32.3261 18.7846C32.1297 18.8658 31.9192 18.9075 31.7067 18.9072Z" fill="#E8A700"/>
</svg>
