<svg width="131" height="95" viewBox="0 0 131 95" fill="none" xmlns="http://www.w3.org/2000/svg">
<path fill-rule="evenodd" clip-rule="evenodd" d="M51.4276 7.40591C51.4276 5.44174 52.2086 3.55802 53.5988 2.16914C54.989 0.780263 56.8745 0 58.8405 0L103.318 0C105.284 0 107.169 0.780263 108.56 2.16914C109.95 3.55802 110.731 5.44174 110.731 7.40591V25.9207H51.4276V7.40591ZM94.0517 11.1089C93.5602 11.1089 93.0889 11.3039 92.7413 11.6511C92.3938 11.9984 92.1985 12.4693 92.1985 12.9603V16.6633C92.1985 17.1543 92.3938 17.6253 92.7413 17.9725C93.0889 18.3197 93.5602 18.5148 94.0517 18.5148H101.465C101.956 18.5148 102.428 18.3197 102.775 17.9725C103.123 17.6253 103.318 17.1543 103.318 16.6633V12.9603C103.318 12.4693 103.123 11.9984 102.775 11.6511C102.428 11.3039 101.956 11.1089 101.465 11.1089H94.0517Z" fill="#FFC41E"/>
<path d="M51.4273 33.3267V37.0296C51.4273 38.9938 52.2083 40.8775 53.5985 42.2664C54.9886 43.6553 56.8741 44.4355 58.8402 44.4355H103.318C105.284 44.4355 107.169 43.6553 108.559 42.2664C109.949 40.8775 110.73 38.9938 110.73 37.0296V33.3267H51.4273Z" fill="#FFC41E"/>
<mask id="path-3-inside-1" fill="white">
<rect y="34.7286" width="20.1631" height="58.2713" rx="2"/>
</mask>
<rect y="34.7286" width="20.1631" height="58.2713" rx="2" stroke="#242424" stroke-width="10" mask="url(#path-3-inside-1)"/>
<path d="M26.5198 44.6232V83.2725C35.4152 83.2725 38.1524 85.0803 47.2759 85.651C78.3589 95.4304 84.9183 92.0548 100.047 83.2725C105.645 80.0235 114.74 72.9827 121.036 67.8128C129.49 59.4406 128.64 57.2288 126.742 55.3261C118.44 47.0016 109.544 66.6236 92.9393 67.8128C80.1536 68.7285 58.5435 66.6236 53.2062 66.6236" stroke="#242424" stroke-width="5"/>
<path d="M24.5581 44.6544C29.7674 44.2826 40.2213 42.7453 44.9038 44.6233C50.8341 47.0017 53.2973 52.2104 56.6703 53.341C64.3663 55.9207 76.9469 55.4901 81.6717 55.9207C88.195 56.5153 98.8696 56.5153 98.2766 65.4344C97.9023 71.0628 66.2529 66.6236 53.7992 66.6236" stroke="#242424" stroke-width="5"/>
</svg>
