<svg width="150" height="150" viewBox="0 0 150 150" fill="none" xmlns="http://www.w3.org/2000/svg">
<path fill-rule="evenodd" clip-rule="evenodd" d="M75 148C115.317 148 148 115.317 148 75C148 34.6832 115.317 2 75 2C34.6832 2 2 34.6832 2 75C2 115.317 34.6832 148 75 148ZM75 150C116.421 150 150 116.421 150 75C150 33.5786 116.421 0 75 0C33.5786 0 0 33.5786 0 75C0 116.421 33.5786 150 75 150Z" fill="#FFC41E"/>
<path fill-rule="evenodd" clip-rule="evenodd" d="M65.5614 47.2763C65.5614 45.8769 66.1166 44.5349 67.105 43.5454C68.0933 42.5559 69.4338 42 70.8315 42H102.452C103.85 42 105.19 42.5559 106.179 43.5454C107.167 44.5349 107.722 45.8769 107.722 47.2763V60.4671H65.5614V47.2763ZM95.8645 49.9145C95.515 49.9145 95.1799 50.0534 94.9328 50.3008C94.6857 50.5482 94.5469 50.8837 94.5469 51.2335V53.8717C94.5469 54.2215 94.6857 54.557 94.9328 54.8044C95.1799 55.0518 95.515 55.1908 95.8645 55.1908H101.135C101.484 55.1908 101.819 55.0518 102.066 54.8044C102.313 54.557 102.452 54.2215 102.452 53.8717V51.2335C102.452 50.8837 102.313 50.5482 102.066 50.3008C101.819 50.0534 101.484 49.9145 101.135 49.9145H95.8645Z" fill="#FFC41E"/>
<path d="M65.5614 65.7434V68.3816C65.5614 69.7809 66.1166 71.123 67.105 72.1125C68.0933 73.102 69.4338 73.6579 70.8315 73.6579H102.452C103.85 73.6579 105.19 73.102 106.179 72.1125C107.167 71.123 107.722 69.7809 107.722 68.3816V65.7434H65.5614Z" fill="#FFC41E"/>
<path fill-rule="evenodd" clip-rule="evenodd" d="M33 70.6338V104H39.3347V70.6338H33ZM31 66.6338C29.8954 66.6338 29 67.5292 29 68.6338V106C29 107.105 29.8954 108 31 108H41.3347C42.4392 108 43.3347 107.105 43.3347 106V68.6338C43.3347 67.5292 42.4392 66.6338 41.3347 66.6338H31Z" fill="#242424"/>
<path fill-rule="evenodd" clip-rule="evenodd" d="M45.8538 73.6577H49.8538V99.1389C52.1219 99.2432 53.8368 99.518 55.5215 99.8177C55.7318 99.8551 55.9411 99.8928 56.1505 99.9305C58.0373 100.27 59.9346 100.612 62.7347 100.787L62.9774 100.802L63.2095 100.875C74.2172 104.333 80.5812 105.359 85.4292 104.889C90.2111 104.426 93.7136 102.5 99.1243 99.3641C102.926 97.1607 109.23 92.3008 113.709 88.6325C116.666 85.6995 117.675 84.1342 117.938 83.3373C117.995 83.1652 118.001 83.0752 118 83.0398C117.996 83.0307 117.982 83.0046 117.949 82.9582C117.899 82.8906 117.821 82.8 117.69 82.669C117.16 82.1378 116.73 81.9303 116.395 81.8497C116.057 81.7684 115.649 81.7763 115.102 81.9426C113.891 82.3101 112.459 83.2864 110.504 84.7544C110.252 84.9433 109.994 85.1388 109.73 85.3393C106.15 88.0519 101.368 91.6748 95.2165 92.1147C90.5329 92.4496 84.3063 92.2308 78.8571 91.9386C76.6511 91.8203 74.5913 91.6916 72.7946 91.5794C70.0572 91.4084 67.9302 91.2756 66.8261 91.2756V87.2756C68.0448 87.2756 70.4084 87.4227 73.3004 87.6026C75.0728 87.7129 77.0438 87.8356 79.0713 87.9443C84.5249 88.2367 90.5249 88.44 94.9312 88.1249C99.853 87.7729 103.734 84.8473 107.472 82.0301C107.682 81.8715 107.892 81.7132 108.102 81.5557C109.942 80.1745 111.935 78.7237 113.939 78.1151C114.999 77.7933 116.146 77.6759 117.33 77.9607C118.517 78.2461 119.575 78.896 120.521 79.8422C120.92 80.2419 121.467 80.8495 121.771 81.7062C122.097 82.6243 122.066 83.5954 121.736 84.5936C121.138 86.3995 119.457 88.5736 116.455 91.5419L116.389 91.6074L116.317 91.6664C111.847 95.3315 105.267 100.427 101.13 102.825C95.785 105.923 91.5779 108.313 85.8147 108.871C80.1571 109.419 73.1983 108.192 62.241 104.763C59.3326 104.569 57.2926 104.201 55.4445 103.868C55.2344 103.83 55.0268 103.793 54.8208 103.756C52.7916 103.395 50.8519 103.094 47.8538 103.094H45.8538V73.6577ZM117.996 83.0215C117.997 83.0211 117.999 83.0264 118 83.0388C117.996 83.0281 117.996 83.0219 117.996 83.0215Z" fill="#242424"/>
<path fill-rule="evenodd" clip-rule="evenodd" d="M48.5108 75.4566C47.7141 75.5317 46.9762 75.6013 46.3211 75.6518L46.0139 71.6636C46.5511 71.6222 47.2206 71.5593 47.9748 71.4885C49.6055 71.3354 51.6321 71.1451 53.5742 71.0544C55.0213 70.9869 56.5026 70.9687 57.862 71.0602C59.1917 71.1498 60.5466 71.3523 61.6673 71.8011C64.1593 72.7991 65.8848 74.3822 67.186 75.6538C67.3524 75.8165 67.5075 75.9695 67.6541 76.1142C68.1105 76.5648 68.485 76.9344 68.8643 77.2593C69.3516 77.6767 69.6805 77.8684 69.9238 77.9498C72.3871 78.7743 75.7597 79.1477 79.0824 79.3374C80.6673 79.4279 82.1945 79.4748 83.5605 79.5168L83.7 79.521C85.0725 79.5633 86.3313 79.6028 87.2447 79.6859C87.5927 79.7176 87.9759 79.7473 88.3855 79.7791C90.4717 79.941 93.2416 80.156 95.5209 80.9497C96.9314 81.4409 98.3657 82.2152 99.4097 83.5075C100.492 84.8474 100.998 86.5495 100.864 88.5642C100.756 90.1812 99.5106 91.0364 98.6175 91.4385C97.6781 91.8614 96.5005 92.0945 95.2922 92.2354C92.8377 92.5216 89.5875 92.4946 86.1934 92.3499C83.2149 92.223 80.0319 92.0002 77.0491 91.7915C76.6106 91.7608 76.1765 91.7304 75.7479 91.7007C72.3714 91.4665 69.3785 91.2755 67.2479 91.2755V87.2755C69.5441 87.2755 72.684 87.4785 76.0248 87.7103C76.4573 87.7403 76.8937 87.7708 77.3331 87.8016C80.3213 88.0106 83.4442 88.2291 86.3637 88.3536C89.7348 88.4973 92.713 88.509 94.8289 88.2623C95.8241 88.1463 96.4915 87.987 96.8843 87.8297C96.8658 86.9581 96.6121 86.4097 96.2982 86.0211C95.8929 85.5195 95.2191 85.0802 94.2054 84.7272C92.4663 84.1216 90.3491 83.952 88.2558 83.7844C87.7953 83.7476 87.336 83.7108 86.8821 83.6695C86.1161 83.5997 84.9972 83.5628 83.577 83.5192L83.4239 83.5145C82.0664 83.4728 80.493 83.4244 78.8543 83.3309C75.4974 83.1392 71.6623 82.7498 68.6542 81.743C67.6986 81.4231 66.9094 80.8516 66.2621 80.2972C65.7647 79.8711 65.2519 79.3645 64.7738 78.8921C64.643 78.763 64.5149 78.6364 64.3903 78.5146C63.1624 77.3147 61.9042 76.2048 60.1802 75.5144C59.6365 75.2966 58.7713 75.1306 57.5931 75.0512C56.4445 74.9738 55.1299 74.9861 53.7607 75.0501C51.9042 75.1367 50.0917 75.3076 48.5108 75.4566ZM97.1476 87.6998C97.148 87.6999 97.1434 87.7036 97.1324 87.7106C97.1416 87.7032 97.1471 87.6997 97.1476 87.6998Z" fill="#242424"/>
</svg>
