<svg width="149" height="145" viewBox="0 0 149 145" fill="none" xmlns="http://www.w3.org/2000/svg">
<path fill-rule="evenodd" clip-rule="evenodd" d="M72.9659 5.49226C73.8282 4.41391 75.4013 4.23875 76.4797 5.10103L147.476 61.8717C148.554 62.734 148.73 64.3072 147.867 65.3856C147.005 66.4639 145.432 66.6391 144.353 65.7768L73.3571 9.00608C72.2788 8.14381 72.1036 6.57061 72.9659 5.49226Z" fill="#242424"/>
<path fill-rule="evenodd" clip-rule="evenodd" d="M76.8713 5.49226C77.7335 6.57061 77.5584 8.14381 76.48 9.00608L5.48372 65.7768C4.40537 66.6391 2.83218 66.4639 1.9699 65.3856C1.10762 64.3072 1.28278 62.734 2.36113 61.8717L73.3574 5.10103C74.4358 4.23875 76.009 4.41391 76.8713 5.49226Z" fill="#242424"/>
<path fill-rule="evenodd" clip-rule="evenodd" d="M25.2211 47.1316C26.6018 47.1316 27.7211 48.2509 27.7211 49.6316V141.884C27.7211 143.265 26.6018 144.384 25.2211 144.384C23.8404 144.384 22.7211 143.265 22.7211 141.884V49.6316C22.7211 48.2509 23.8404 47.1316 25.2211 47.1316Z" fill="#242424"/>
<path fill-rule="evenodd" clip-rule="evenodd" d="M124.616 47.1316C125.997 47.1316 127.116 48.2509 127.116 49.6316V141.884C127.116 143.265 125.997 144.384 124.616 144.384C123.235 144.384 122.116 143.265 122.116 141.884V49.6316C122.116 48.2509 123.235 47.1316 124.616 47.1316Z" fill="#242424"/>
<path fill-rule="evenodd" clip-rule="evenodd" d="M22.7211 141.884C22.7211 140.503 23.8404 139.384 25.2211 139.384H124.616C125.997 139.384 127.116 140.503 127.116 141.884C127.116 143.265 125.997 144.384 124.616 144.384H25.2211C23.8404 144.384 22.7211 143.265 22.7211 141.884Z" fill="#242424"/>
<path d="M75.4295 81.1502L93.9488 87.6139V113.982C93.9488 114.494 93.7406 114.985 93.37 115.347C92.9994 115.709 92.4967 115.913 91.9726 115.913H84.0679C83.5438 115.913 83.0411 115.709 82.6705 115.347C82.2999 114.985 82.0917 114.494 82.0917 113.982V100.463H62.3298V113.982C62.3298 114.494 62.1216 114.985 61.751 115.347C61.3804 115.709 60.8778 115.913 60.3536 115.913H52.4489C51.9248 115.913 51.4221 115.709 51.0515 115.347C50.6809 114.985 50.4727 114.494 50.4727 113.982V88.1619C45.883 86.5626 42.568 82.3162 42.568 77.2877C42.568 76.2633 42.9844 75.2809 43.7256 74.5565C44.4668 73.8322 45.4721 73.4252 46.5203 73.4252C47.5686 73.4252 48.5739 73.8322 49.3151 74.5565C50.0563 75.2809 50.4727 76.2633 50.4727 77.2877C50.4747 78.3115 50.8917 79.2929 51.6325 80.0168C52.3733 80.7408 53.3774 81.1483 54.4251 81.1502H75.4295ZM105.806 67.6314V71.4939C105.806 73.5428 104.973 75.5077 103.491 76.9564C102.008 78.4051 99.9976 79.219 97.9012 79.219H93.9488V83.5136L78.1393 77.9963V59.9064C78.1393 58.1864 80.2662 57.3245 81.5124 58.5412L84.8818 61.8376H91.5057C92.8533 61.8376 94.4391 62.7936 95.0406 63.9729L95.925 65.7002H103.83C104.354 65.7002 104.857 65.9036 105.227 66.2658C105.598 66.628 105.806 67.1192 105.806 67.6314ZM91.9726 67.6314C91.9726 67.2495 91.8567 66.8761 91.6396 66.5585C91.4224 66.2409 91.1138 65.9934 90.7527 65.8472C90.3916 65.701 89.9942 65.6628 89.6109 65.7373C89.2276 65.8118 88.8754 65.9957 88.5991 66.2658C88.3227 66.5359 88.1345 66.88 88.0582 67.2547C87.982 67.6293 88.0211 68.0176 88.1707 68.3705C88.3202 68.7234 88.5735 69.025 88.8985 69.2372C89.2235 69.4494 89.6056 69.5627 89.9964 69.5627C90.5205 69.5627 91.0232 69.3592 91.3938 68.997C91.7644 68.6349 91.9726 68.1436 91.9726 67.6314Z" fill="#242424"/>
<path d="M61.708 11.8739C60.7268 9.55032 59.312 7.44471 57.5429 5.67495C55.7724 3.8999 53.6849 2.4893 51.394 1.51985C49.0185 0.510592 46.4706 -0.00600271 43.8983 5.26228e-05C40.2895 5.26228e-05 36.7686 1.01075 33.7088 2.91985C32.9768 3.37654 32.2814 3.87815 31.6226 4.42467C30.9638 3.87815 30.2684 3.37654 29.5364 2.91985C26.4766 1.01075 22.9557 5.26228e-05 19.3469 5.26228e-05C16.7483 5.26228e-05 14.2302 0.509146 11.8512 1.51985C9.55266 2.49311 7.48109 3.89312 5.70232 5.67495C3.93084 7.44272 2.51574 9.54882 1.53721 11.8739C0.519723 14.2921 0 16.86 0 19.5028C0 21.9959 0.497763 24.5938 1.48597 27.2365C2.31313 29.4451 3.49898 31.736 5.01423 34.0494C7.41521 37.7104 10.7165 41.5286 14.8158 45.3992C21.6088 51.8153 28.3359 56.2474 28.6214 56.4271L30.3562 57.565C31.1248 58.0667 32.113 58.0667 32.8816 57.565L34.6165 56.4271C34.902 56.2399 41.6218 51.8153 48.4221 45.3992C52.5213 41.5286 55.8227 37.7104 58.2237 34.0494C59.7389 31.736 60.9321 29.4451 61.7519 27.2365C62.7401 24.5938 63.2379 21.9959 63.2379 19.5028C63.2452 16.86 62.7255 14.2921 61.708 11.8739Z" fill="#FFC41E"/>
</svg>
