<svg width="150" height="150" viewBox="0 0 150 150" fill="none" xmlns="http://www.w3.org/2000/svg">
<path fill-rule="evenodd" clip-rule="evenodd" d="M75 148C115.317 148 148 115.317 148 75C148 34.6832 115.317 2 75 2C34.6832 2 2 34.6832 2 75C2 115.317 34.6832 148 75 148ZM75 150C116.421 150 150 116.421 150 75C150 33.5786 116.421 0 75 0C33.5786 0 0 33.5786 0 75C0 116.421 33.5786 150 75 150Z" fill="#FFC41E"/>
<path fill-rule="evenodd" clip-rule="evenodd" d="M73.4385 35.711C74.1288 34.8486 75.3874 34.7091 76.2497 35.3993L116.25 67.4158C117.112 68.1061 117.252 69.3647 116.561 70.227C115.871 71.0894 114.613 71.2289 113.75 70.5387L73.7502 38.5222C72.8878 37.832 72.7483 36.5733 73.4385 35.711Z" fill="#242424"/>
<path fill-rule="evenodd" clip-rule="evenodd" d="M76.5614 35.711C77.2517 36.5733 77.1121 37.832 76.2498 38.5222L36.2498 70.5387C35.3874 71.2289 34.1288 71.0894 33.4386 70.227C32.7483 69.3647 32.8879 68.1061 33.7502 67.4158L73.7502 35.3993C74.6126 34.7091 75.8712 34.8486 76.5614 35.711Z" fill="#242424"/>
<path fill-rule="evenodd" clip-rule="evenodd" d="M47 58.9731C48.1046 58.9731 49 59.8686 49 60.9731V113C49 114.105 48.1046 115 47 115C45.8954 115 45 114.105 45 113V60.9731C45 59.8686 45.8954 58.9731 47 58.9731Z" fill="#242424"/>
<path fill-rule="evenodd" clip-rule="evenodd" d="M103 58.9731C104.105 58.9731 105 59.8686 105 60.9731V113C105 114.105 104.105 115 103 115C101.895 115 101 114.105 101 113V60.9731C101 59.8686 101.895 58.9731 103 58.9731Z" fill="#242424"/>
<path fill-rule="evenodd" clip-rule="evenodd" d="M45 113C45 111.895 45.8954 111 47 111H103C104.105 111 105 111.895 105 113C105 114.105 104.105 115 103 115H47C45.8954 115 45 114.105 45 113Z" fill="#242424"/>
<path d="M75.2877 78.7486L85.7216 82.3939V97.2642C85.7216 97.5531 85.6043 97.8301 85.3955 98.0344C85.1867 98.2386 84.9035 98.3534 84.6082 98.3534H80.1546C79.8593 98.3534 79.5761 98.2386 79.3673 98.0344C79.1585 97.8301 79.0412 97.5531 79.0412 97.2642V89.6401H67.9072V97.2642C67.9072 97.5531 67.7899 97.8301 67.5811 98.0344C67.3723 98.2386 67.0891 98.3534 66.7938 98.3534H62.3402C62.0449 98.3534 61.7617 98.2386 61.5529 98.0344C61.3441 97.8301 61.2268 97.5531 61.2268 97.2642V82.7029C58.6409 81.8009 56.7732 79.4062 56.7732 76.5703C56.7732 75.9925 57.0078 75.4385 57.4254 75.03C57.843 74.6215 58.4094 74.392 59 74.392C59.5906 74.392 60.157 74.6215 60.5746 75.03C60.9922 75.4385 61.2268 75.9925 61.2268 76.5703C61.2279 77.1477 61.4629 77.7011 61.8802 78.1094C62.2976 78.5177 62.8634 78.7475 63.4536 78.7486H75.2877ZM92.4021 71.1245V73.3028C92.4021 74.4582 91.9328 75.5664 91.0976 76.3834C90.2624 77.2004 89.1296 77.6594 87.9485 77.6594H85.7216V80.0814L76.8144 76.9699V66.7679C76.8144 65.7978 78.0127 65.3118 78.7149 65.998L80.6132 67.857H84.3452C85.1044 67.857 85.9979 68.3961 86.3368 69.0612L86.835 70.0353H91.2887C91.584 70.0353 91.8671 70.1501 92.076 70.3543C92.2848 70.5586 92.4021 70.8356 92.4021 71.1245ZM84.6082 71.1245C84.6082 70.9091 84.5429 70.6985 84.4206 70.5194C84.2983 70.3403 84.1244 70.2007 83.9209 70.1182C83.7175 70.0358 83.4936 70.0142 83.2776 70.0563C83.0616 70.0983 82.8633 70.202 82.7075 70.3543C82.5518 70.5067 82.4458 70.7007 82.4028 70.912C82.3599 71.1233 82.3819 71.3423 82.4662 71.5413C82.5505 71.7403 82.6932 71.9104 82.8763 72.0301C83.0594 72.1498 83.2746 72.2136 83.4948 72.2136C83.7901 72.2136 84.0733 72.0989 84.2821 71.8946C84.4909 71.6904 84.6082 71.4133 84.6082 71.1245Z" fill="#242424"/>
<path d="M69.7669 39.6964C69.2141 38.386 68.417 37.1985 67.4202 36.2005C66.4227 35.1994 65.2466 34.4039 63.9559 33.8571C62.6175 33.288 61.182 32.9966 59.7327 33C57.6995 33 55.7158 33.57 53.9919 34.6467C53.5794 34.9042 53.1876 35.1871 52.8165 35.4953C52.4453 35.1871 52.0535 34.9042 51.6411 34.6467C49.9172 33.57 47.9334 33 45.9002 33C44.4361 33 43.0174 33.2871 41.6771 33.8571C40.3821 34.406 39.2149 35.1956 38.2127 36.2005C37.2147 37.1974 36.4174 38.3852 35.8661 39.6964C35.2928 41.0602 35 42.5084 35 43.9988C35 45.4048 35.2804 46.8699 35.8372 48.3604C36.3032 49.6059 36.9714 50.8979 37.8251 52.2026C39.1778 54.2672 41.0378 56.4205 43.3473 58.6034C47.1746 62.2218 50.9647 64.7214 51.1256 64.8227L52.103 65.4645C52.536 65.7474 53.0928 65.7474 53.5258 65.4645L54.5033 64.8227C54.6641 64.7171 58.4501 62.2218 62.2815 58.6034C64.591 56.4205 66.451 54.2672 67.8038 52.2026C68.6575 50.8979 69.3297 49.6059 69.7916 48.3604C70.3484 46.8699 70.6288 45.4048 70.6288 43.9988C70.6329 42.5084 70.3401 41.0602 69.7669 39.6964Z" fill="#FFC41E"/>
</svg>
