<svg width="49" height="49" viewBox="0 0 49 49" fill="none" xmlns="http://www.w3.org/2000/svg">
<circle cx="24.5" cy="24.5" r="23.5" stroke="white" stroke-width="2"/>
<path d="M38.3123 19.219C38.5219 18.5157 38.3123 18 37.3212 18H34.038C33.2026 18 32.8208 18.4461 32.6112 18.9361C32.6112 18.9361 30.9419 23.0482 28.5765 25.7145C27.813 26.4903 27.4641 26.7353 27.0479 26.7353C26.8398 26.7353 26.5374 26.4903 26.5374 25.7871V19.219C26.5374 18.3751 26.2964 18 25.6002 18H20.4411C19.9201 18 19.6057 18.3902 19.6057 18.7622C19.6057 19.5607 20.7885 19.7453 20.9097 21.9956V26.8775C20.9097 27.9467 20.7196 28.1418 20.3004 28.1418C19.188 28.1418 16.4812 24.0146 14.8748 19.29C14.5619 18.372 14.246 18.0015 13.4076 18.0015H10.126C9.18726 18.0015 9.00012 18.4477 9.00012 18.9377C9.00012 19.8178 10.1125 24.1734 14.1817 29.934C16.8944 33.8676 20.7136 36 24.1929 36C26.2784 36 26.5359 35.5266 26.5359 34.71V31.7367C26.5359 30.79 26.735 30.5994 27.3953 30.5994C27.8803 30.5994 28.7157 30.8474 30.6635 32.7424C32.8882 34.9897 33.2565 35.9985 34.5066 35.9985H37.7883C38.7255 35.9985 39.1941 35.5251 38.9246 34.5905C38.6297 33.6604 37.5667 32.3068 36.1564 30.7053C35.3899 29.7918 34.2446 28.8088 33.8958 28.3173C33.4092 27.6836 33.5499 27.4038 33.8958 26.8412C33.8973 26.8427 37.8961 21.1533 38.3123 19.219Z" fill="white"/>
</svg>
