<svg width="49" height="49" viewBox="0 0 49 49" fill="none" xmlns="http://www.w3.org/2000/svg">
<circle cx="24.5" cy="24.5" r="23.5" stroke="white" stroke-width="2"/>
<path d="M38.3122 19.219C38.5218 18.5157 38.3122 18 37.3211 18H34.0379C33.2025 18 32.8207 18.4461 32.6111 18.9361C32.6111 18.9361 30.9418 23.0482 28.5764 25.7145C27.8128 26.4903 27.464 26.7353 27.0478 26.7353C26.8397 26.7353 26.5373 26.4903 26.5373 25.7871V19.219C26.5373 18.3751 26.2963 18 25.6001 18H20.441C19.92 18 19.6056 18.3902 19.6056 18.7622C19.6056 19.5607 20.7883 19.7453 20.9096 21.9956V26.8775C20.9096 27.9467 20.7195 28.1418 20.3003 28.1418C19.1879 28.1418 16.4811 24.0146 14.8747 19.29C14.5618 18.372 14.2459 18.0015 13.4075 18.0015H10.1258C9.18714 18.0015 9 18.4477 9 18.9377C9 19.8178 10.1124 24.1734 14.1815 29.934C16.8943 33.8676 20.7135 36 24.1928 36C26.2783 36 26.5358 35.5266 26.5358 34.71V31.7367C26.5358 30.79 26.7349 30.5994 27.3951 30.5994C27.8802 30.5994 28.7156 30.8474 30.6634 32.7424C32.8881 34.9897 33.2564 35.9985 34.5065 35.9985H37.7882C38.7254 35.9985 39.194 35.5251 38.9245 34.5905C38.6295 33.6604 37.5666 32.3068 36.1563 30.7053C35.3898 29.7918 34.2445 28.8088 33.8956 28.3173C33.4091 27.6836 33.5498 27.4038 33.8956 26.8412C33.8971 26.8427 37.896 21.1533 38.3122 19.219Z" fill="white"/>
</svg>
